GIL11_xslow1_ik
nRows=3
nColumns=375

# SIMM Motion File Header:
name GIL11_xslow1_ik
datacolumns 375
datarows 3
otherdata 1
range 1.32500000 1.34167000
endheader
time	pelvis_tx	pelvis_ty	pelvis_tz	pelvis_tilt	pelvis_list	pelvis_rotation	hip_flexion_r	hip_adduction_r	hip_rotation_r	knee_angle_r	ankle_angle_r	hip_flexion_l	hip_adduction_l	hip_rotation_l	knee_angle_l	ankle_angle_l	lumbar_extension	lumbar_bending	lumbar_rotation	subtalar_angle_r	mtp_angle_r	subtalar_angle_l	mtp_angle_l	asis_r_px	asis_r_py	asis_r_pz	asis_l_px	asis_l_py	asis_l_pz	midasis_px	midasis_py	midasis_pz	psis_r_px	psis_r_py	psis_r_pz	psis_l_px	psis_l_py	psis_l_pz	hip_r_px	hip_r_py	hip_r_pz	hip_l_px	hip_l_py	hip_l_pz	midhip_px	midhip_py	midhip_pz	epicondLat_r_px	epicondLat_r_py	epicondLat_r_pz	epicondMed_r_px	epicondMed_r_py	epicondMed_r_pz	thighwand_r_px	thighwand_r_py	thighwand_r_pz	upperleg1_r_px	upperleg1_r_py	upperleg1_r_pz	upperleg2_r_px	upperleg2_r_py	upperleg2_r_pz	malleolusLat_r_px	malleolusLat_r_py	malleolusLat_r_pz	malleolusMedv_r_px	malleolusMedv_r_py	malleolusMedv_r_pz	shankwand_r_px	shankwand_r_py	shankwand_r_pz	lowerleg1_r_px	lowerleg1_r_py	lowerleg1_r_pz	knee_r_px	knee_r_py	knee_r_pz	ankle_r_px	ankle_r_py	ankle_r_pz	toe_r_px	toe_r_py	toe_r_pz	epicondLat_l_px	epicondLat_l_py	epicondLat_l_pz	epicondMed_l_px	epicondMed_l_py	epicondMed_l_pz	thighwand_l_px	thighwand_l_py	thighwand_l_pz	upperleg1_l_px	upperleg1_l_py	upperleg1_l_pz	upperleg2_l_px	upperleg2_l_py	upperleg2_l_pz	malleolusLat_l_px	malleolusLat_l_py	malleolusLat_l_pz	malleolusMedv_l_px	malleolusMedv_l_py	malleolusMedv_l_pz	shankwand_l_px	shankwand_l_py	shankwand_l_pz	lowerleg1_l_px	lowerleg1_l_py	lowerleg1_l_pz	knee_l_px	knee_l_py	knee_l_pz	ankle_l_px	ankle_l_py	ankle_l_pz	toe_l_px	toe_l_py	toe_l_pz	subclavicle_r_px	subclavicle_r_py	subclavicle_r_pz	subclavicle_l_px	subclavicle_l_py	subclavicle_l_pz	neck_px	neck_py	neck_pz	sternalnotch_px	sternalnotch_py	sternalnotch_pz	xyphoidprocess_px	xyphoidprocess_py	xyphoidprocess_pz	midhip_tx	midhip_ty	midhip_tz	hip_r_tx	hip_r_ty	hip_r_tz	hip_l_tx	hip_l_ty	hip_l_tz	knee_r_tx	knee_r_ty	knee_r_tz	knee_l_tx	knee_l_ty	knee_l_tz	ankle_r_tx	ankle_r_ty	ankle_r_tz	ankle_l_tx	ankle_l_ty	ankle_l_tz	midasis_tx	midasis_ty	midasis_tz	asis_r_tx	asis_r_ty	asis_r_tz	asis_l_tx	asis_l_ty	asis_l_tz	psis_r_tx	psis_r_ty	psis_r_tz	psis_l_tx	psis_l_ty	psis_l_tz	epicondLat_r_tx	epicondLat_r_ty	epicondLat_r_tz	epicondLat_l_tx	epicondLat_l_ty	epicondLat_l_tz	epicondMed_r_tx	epicondMed_r_ty	epicondMed_r_tz	epicondMed_l_tx	epicondMed_l_ty	epicondMed_l_tz	malleolusLat_r_tx	malleolusLat_r_ty	malleolusLat_r_tz	malleolusLat_l_tx	malleolusLat_l_ty	malleolusLat_l_tz	malleolusMedv_r_tx	malleolusMedv_r_ty	malleolusMedv_r_tz	malleolusMedv_l_tx	malleolusMedv_l_ty	malleolusMedv_l_tz	neck_tx	neck_ty	neck_tz	subclavicle_r_tx	subclavicle_r_ty	subclavicle_r_tz	subclavicle_l_tx	subclavicle_l_ty	subclavicle_l_tz	sternalnotch_tx	sternalnotch_ty	sternalnotch_tz	xyphoidprocess_tx	xyphoidprocess_ty	xyphoidprocess_tz	thighwand_r_tx	thighwand_r_ty	thighwand_r_tz	thighwand_l_tx	thighwand_l_ty	thighwand_l_tz	upperleg1_r_tx	upperleg1_r_ty	upperleg1_r_tz	upperleg1_l_tx	upperleg1_l_ty	upperleg1_l_tz	upperleg2_r_tx	upperleg2_r_ty	upperleg2_r_tz	upperleg2_l_tx	upperleg2_l_ty	upperleg2_l_tz	shankwand_r_tx	shankwand_r_ty	shankwand_r_tz	shankwand_l_tx	shankwand_l_ty	shankwand_l_tz	lowerleg1_r_tx	lowerleg1_r_ty	lowerleg1_r_tz	lowerleg1_l_tx	lowerleg1_l_ty	lowerleg1_l_tz	toe_r_tx	toe_r_ty	toe_r_tz	toe_l_tx	toe_l_ty	toe_l_tz	ground_force_vx	ground_force_vy	ground_force_vz	ground_force_px	ground_force_py	ground_force_pz	ground_force_vx	ground_force_vy	ground_force_vz	ground_force_px	ground_force_py	ground_force_pz	ground_torque_x	ground_torque_y	ground_torque_z	ground_torque_x	ground_torque_y	ground_torque_z	ground_marker_px	ground_marker_py	ground_marker_pz	ground_marker_px	ground_marker_py	ground_marker_pz	ground_marker_px	ground_marker_py	ground_marker_pz	ground_marker_px	ground_marker_py	ground_marker_pz	ground_marker_px	ground_marker_py	ground_marker_pz	ground_marker_px	ground_marker_py	ground_marker_pz	ground_marker_px	ground_marker_py	ground_marker_pz	ground_marker_px	ground_marker_py	ground_marker_pz	ground_marker_px	ground_marker_py	ground_marker_pz	ground_marker_px	ground_marker_py	ground_marker_pz	ground_marker_px	ground_marker_py	ground_marker_pz	ground_marker_px	ground_marker_py	ground_marker_pz	ground_marker_px	ground_marker_py	ground_marker_pz	ground_marker_px	ground_marker_py	ground_marker_pz	ground_marker_px	ground_marker_py	ground_marker_pz	ground_marker_px	ground_marker_py	ground_marker_pz	ground_marker_px	ground_marker_py	ground_marker_pz	ground_marker_px	ground_marker_py	ground_marker_pz	ground_marker_px	ground_marker_py	ground_marker_pz	ground_marker_px	ground_marker_py	ground_marker_pz	ground_marker_px	ground_marker_py	ground_marker_pz	ground_marker_px	ground_marker_py	ground_marker_pz	ground_marker_px	ground_marker_py	ground_marker_pz	ground_marker_px	ground_marker_py	ground_marker_pz	ground_marker_px	ground_marker_py	ground_marker_pz	ground_marker_px	ground_marker_py	ground_marker_pz	ground_marker_px	ground_marker_py	ground_marker_pz	ground_marker_px	ground_marker_py	ground_marker_pz	ground_marker_px	ground_marker_py	ground_marker_pz	ground_marker_px	ground_marker_py	ground_marker_pz	ground_marker_px	ground_marker_py	ground_marker_pz	ground_marker_px	ground_marker_py	ground_marker_pz	ground_marker_px	ground_marker_py	ground_marker_pz	ground_marker_px	ground_marker_py	ground_marker_pz	ground_marker_px	ground_marker_py	ground_marker_pz	ground_marker_px	ground_marker_py	ground_marker_pz	ground_marker_px	ground_marker_py	ground_marker_pz
      1.32500000	      0.77697506	      0.87608902	     -0.21276405	     -4.87945584	      1.17387804	      2.01316855	      5.00876638	      3.02697647	      3.00626372	     -2.97333460	      4.12776784	     20.55475592	     -3.19303312	     12.74294130	    -43.23441364	      4.55578898	     -3.25705083	     -1.71362234	      3.42132630	      0.00000000	      0.00000000	      0.00000000	      0.00000000	      0.82838518	      0.85931043	     -0.10397984	      0.81901032	      0.86828533	     -0.33885853	      0.78978594	      0.87500466	     -0.21321588	      0.63827876	      0.94746605	     -0.17783240	      0.63267609	      0.94579604	     -0.23222645	      0.70966672	      0.81926394	     -0.13506178	      0.70456270	      0.82285296	     -0.28839154	      0.70711471	      0.82105845	     -0.21172666	      0.73617658	      0.42376547	     -0.10597973	      0.72651338	      0.43198286	     -0.22235934	      0.88762289	      0.56586314	     -0.18235816	      0.82561750	      0.61426990	     -0.12118048	      0.81215902	      0.52734439	     -0.12443618	      0.67122665	      0.05429064	     -0.14269958	      0.69947606	      0.06088532	     -0.21228948	      0.66927323	      0.12809854	     -0.07078697	      0.67401272	      0.13954882	     -0.11331713	      0.70587593	      0.44248140	     -0.16351580	      0.68677111	      0.07089322	     -0.19025192	      0.78513025	      0.02270437	     -0.13295814	      0.84907521	      0.45971721	     -0.38597170	      0.82538315	      0.45179883	     -0.26461498	      0.85904119	      0.60486280	     -0.45033118	      0.77872038	      0.63116701	     -0.40014541	      0.80645786	      0.54767272	     -0.39373339	      0.62672245	      0.13224221	     -0.44748846	      0.63780429	      0.12131392	     -0.37855004	      0.77087530	      0.17827429	     -0.37066998	      0.73523660	      0.19846071	     -0.38099478	      0.80940468	      0.45587840	     -0.32129598	      0.63961875	      0.13193055	     -0.39469978	      0.72221079	      0.05698685	     -0.43542989	      0.80286266	      1.32904042	     -0.16516954	      0.79470728	      1.32503509	     -0.27068111	      0.67088825	      1.37262340	     -0.20529191	      0.79574929	      1.32337276	     -0.21701458	      0.84392336	      1.25956110	     -0.22216132	      0.71516300	      0.83197600	     -0.21853200	      0.70251400	      0.80627200	     -0.14977800	      0.69467400	      0.81310600	     -0.30155000	      0.70423800	      0.44189200	     -0.17990800	      0.80410200	      0.43500000	     -0.35508800	      0.68615100	      0.06460300	     -0.21065700	      0.63469000	      0.12555900	     -0.34470900	      0.78943700	      0.88311500	     -0.22400300	      0.79166000	      0.87767700	     -0.10522900	      0.78721500	      0.88855200	     -0.34277700	      0.59274100	      0.94490500	     -0.18745200	      0.58925900	      0.93965600	     -0.24176600	      0.70840000	      0.43714400	     -0.12225300	      0.81468500	      0.44598700	     -0.41104600	      0.70179300	      0.44508800	     -0.22697200	      0.83630900	      0.44011000	     -0.29598500	      0.66938600	      0.06245200	     -0.17440300	      0.61888700	      0.13300400	     -0.38069300	      0.69818700	      0.07585100	     -0.24250500	      0.65129200	      0.13099000	     -0.32239100	      0.67595600	      1.38660900	     -0.20563300	      0.79894800	      1.31655900	     -0.16486400	      0.79200100	      1.31291200	     -0.27070100	      0.79195700	      1.31188800	     -0.21686500	      0.82652700	      1.23965100	     -0.22053300	      0.86432800	      0.57617800	     -0.18519400	      0.82574000	      0.59380400	     -0.48236100	      0.80291800	      0.62539700	     -0.12413000	      0.75395300	      0.61489100	     -0.41928700	      0.78827300	      0.53860300	     -0.12801200	      0.78819300	      0.53466800	     -0.41877200	      0.65956800	      0.13520300	     -0.09738400	      0.77687400	      0.19179900	     -0.35144900	      0.66410800	      0.14727900	     -0.13990700	      0.73891900	      0.21096900	     -0.35404500	      0.78229400	      0.03924400	     -0.17777700	      0.71525600	      0.06641200	     -0.37891000	      1.40153031	    601.04159601	    -13.44476759	      0.71232910	      0.00000000	     -0.19041272	      0.00000000	      0.00000000	      0.00000000	      0.39214801	      0.00000000	     -0.36271484	      0.00000000	     -0.00499866	      0.00000000	      0.00000000	      0.00000000	      0.00000000	      0.71516347	      0.83197618	     -0.21853197	      0.70251352	      0.80627173	     -0.14977808	      0.69467378	      0.81310642	     -0.30154970	      0.70423782	      0.44189155	     -0.17990798	      0.80410188	      0.43500027	     -0.35508811	      0.68615121	      0.06460331	     -0.21065670	      0.63468981	      0.12555906	     -0.34470943	      0.78943741	      0.88311493	     -0.22400253	      0.79166019	      0.87767744	     -0.10522855	      0.78721470	      0.88855237	     -0.34277651	      0.59274065	      0.94490528	     -0.18745153	      0.58925873	      0.93965554	     -0.24176565	      0.70839995	      0.43714383	     -0.12225267	      0.81468475	      0.44598651	     -0.41104618	      0.70179337	      0.44508842	     -0.22697197	      0.83630884	      0.44010985	     -0.29598495	      0.66938579	      0.06245242	     -0.17440349	      0.61888665	      0.13300402	     -0.38069317	      0.69818652	      0.07585084	     -0.24250510	      0.65129191	      0.13099040	     -0.32239062	      0.67595565	      1.38660884	     -0.20563339	      0.79894799	      1.31655872	     -0.16486433	      0.79200077	      1.31291187	     -0.27070093	      0.79195744	      1.31188786	     -0.21686481	      0.82652730	      1.23965085	     -0.22053279	      0.86432809	      0.57617843	     -0.18519400	      0.82573950	      0.59380364	     -0.48236081	      0.80291790	      0.62539691	     -0.12412976	      0.75395304	      0.61489111	     -0.41928667	      0.78827339	      0.53860307	     -0.12801243	      0.78819287	      0.53466767	     -0.41877231	      0.65956765	      0.13520348	     -0.09738450	      0.77687395	      0.19179884	     -0.35144928	      0.66410810	      0.14727938	     -0.13990715	      0.73891926	      0.21096896	     -0.35404459	      0.78229368	      0.03924439	     -0.17777669	      0.71525645	      0.06641178	     -0.37890992
      1.33333000	      0.78042876	      0.87593930	     -0.21209022	     -4.95838770	      1.32873444	      1.90638935	      4.86484811	      2.94221671	      2.99277802	     -3.04450837	      4.36558992	     21.07786873	     -2.98307398	     13.11581603	    -41.53656885	      4.79688047	     -3.31577531	     -1.91331366	      3.47051225	      0.00000000	      0.00000000	      0.00000000	      0.00000000	      0.83158763	      0.85881233	     -0.10324186	      0.82271637	      0.86839513	     -0.33811610	      0.79323901	      0.87483789	     -0.21251807	      0.64176096	      0.94742468	     -0.17726721	      0.63626962	      0.94590034	     -0.23167688	      0.71287781	      0.81901339	     -0.13467282	      0.70809932	      0.82299781	     -0.28800330	      0.71048857	      0.82100560	     -0.21133806	      0.73778013	      0.42338656	     -0.10591760	      0.72841257	      0.43175433	     -0.22231066	      0.88995166	      0.56496650	     -0.18181452	      0.82799703	      0.61355540	     -0.12072987	      0.81420727	      0.52668622	     -0.12410097	      0.67100525	      0.05424565	     -0.14310286	      0.69943904	      0.06075526	     -0.21262566	      0.66927460	      0.12800053	     -0.07113018	      0.67416505	      0.13946302	     -0.11363995	      0.70769123	      0.44227124	     -0.16350476	      0.68673783	      0.07080924	     -0.19060691	      0.78486099	      0.02246902	     -0.13303667	      0.85616130	      0.46102396	     -0.38457401	      0.83136887	      0.45280029	     -0.26345764	      0.86569116	      0.60630890	     -0.44868463	      0.78470633	      0.63197650	     -0.39924185	      0.81298473	      0.54867777	     -0.39265156	      0.64648928	      0.12660543	     -0.44758709	      0.65701640	      0.11634036	     -0.37846004	      0.78782312	      0.17810601	     -0.36902175	      0.75162281	      0.19695165	     -0.37991161	      0.81562235	      0.45710302	     -0.32029581	      0.65866652	      0.12695584	     -0.39462816	      0.74476685	      0.05525970	     -0.43391353	      0.80725544	      1.32877435	     -0.16469137	      0.79916646	      1.32470075	     -0.27020544	      0.67541173	      1.37263136	     -0.20494463	      0.80016609	      1.32308039	     -0.21653682	      0.84819505	      1.25915248	     -0.22159624	      0.71855800	      0.83181600	     -0.21798300	      0.70590000	      0.80604300	     -0.14952300	      0.69835500	      0.81325900	     -0.30129200	      0.70631400	      0.44174500	     -0.18003700	      0.81120600	      0.43603800	     -0.35421100	      0.68638500	      0.06445700	     -0.21086200	      0.65300600	      0.12065600	     -0.34480200	      0.79304600	      0.88297500	     -0.22339400	      0.79503900	      0.87724200	     -0.10461800	      0.79105400	      0.88870700	     -0.34217100	      0.59628800	      0.94496800	     -0.18738300	      0.59296900	      0.93973200	     -0.24164800	      0.71034300	      0.43692000	     -0.12237800	      0.82221200	      0.44716600	     -0.41006000	      0.70429300	      0.44482800	     -0.22686400	      0.84172700	      0.44193500	     -0.29398000	      0.66959700	      0.06238200	     -0.17461500	      0.63653600	      0.12785200	     -0.38053700	      0.69855200	      0.07590000	     -0.24258400	      0.66803800	      0.12697400	     -0.32226600	      0.68080600	      1.38660200	     -0.20535600	      0.80322400	      1.31626400	     -0.16435800	      0.79656800	      1.31307000	     -0.26977000	      0.79612700	      1.31174500	     -0.21623800	      0.83076600	      1.23951500	     -0.22003500	      0.86701800	      0.57545100	     -0.18486800	      0.83296300	      0.59498200	     -0.48146500	      0.80523100	      0.62494800	     -0.12367400	      0.76010100	      0.61577500	     -0.41940900	      0.79058300	      0.53833200	     -0.12763300	      0.79498600	      0.53538500	     -0.41795900	      0.66013900	      0.13523800	     -0.09768000	      0.79269300	      0.19180200	     -0.35251800	      0.66477000	      0.14739700	     -0.13976000	      0.75416600	      0.20939000	     -0.35471800	      0.78242700	      0.03904000	     -0.17784600	      0.73516500	      0.06524500	     -0.38105600	      1.49169151	    600.99166882	    -14.04099745	      0.71491730	      0.00000000	     -0.18991940	      0.00000000	      0.00000000	      0.00000000	      0.39305402	      0.00000000	     -0.36255371	      0.00000000	      0.05037952	      0.00000000	      0.00000000	      0.00000000	      0.00000000	      0.71855849	      0.83181560	     -0.21798339	      0.70590037	      0.80604273	     -0.14952342	      0.69835472	      0.81325895	     -0.30129230	      0.70631385	      0.44174451	     -0.18003660	      0.81120640	      0.43603843	     -0.35421109	      0.68638527	      0.06445719	     -0.21086232	      0.65300608	      0.12065648	     -0.34480202	      0.79304647	      0.88297486	     -0.22339442	      0.79503918	      0.87724239	     -0.10461806	      0.79105371	      0.88870734	     -0.34217077	      0.59628820	      0.94496810	     -0.18738322	      0.59296906	      0.93973213	     -0.24164847	      0.71034318	      0.43691972	     -0.12237825	      0.82221240	      0.44716576	     -0.41005954	      0.70429289	      0.44482806	     -0.22686398	      0.84172720	      0.44193533	     -0.29397976	      0.66959679	      0.06238246	     -0.17461535	      0.63653606	      0.12785198	     -0.38053665	      0.69855183	      0.07589967	     -0.24258387	      0.66803771	      0.12697352	     -0.32226595	      0.68080580	      1.38660181	     -0.20535597	      0.80322438	      1.31626368	     -0.16435812	      0.79656816	      1.31307006	     -0.26977015	      0.79612720	      1.31174517	     -0.21623819	      0.83076555	      1.23951519	     -0.22003458	      0.86701769	      0.57545078	     -0.18486840	      0.83296257	      0.59498167	     -0.48146459	      0.80523092	      0.62494832	     -0.12367409	      0.76010144	      0.61577451	     -0.41940883	      0.79058343	      0.53833151	     -0.12763329	      0.79498619	      0.53538525	     -0.41795948	      0.66013908	      0.13523789	     -0.09768029	      0.79269314	      0.19180222	     -0.35251802	      0.66477013	      0.14739734	     -0.13975957	      0.75416583	      0.20938997	     -0.35471761	      0.78242743	      0.03904018	     -0.17784603	      0.73516530	      0.06524463	     -0.38105643
      1.34167000	      0.78402287	      0.87579560	     -0.21163137	     -5.03053058	      1.47460066	      1.77511321	      4.69725992	      2.86221662	      3.00377910	     -3.09959140	      4.57278244	     21.56058719	     -2.80012679	     13.38829503	    -39.78938000	      4.98051342	     -3.32043916	     -2.04638243	      3.43883669	      0.00000000	      0.00000000	      0.00000000	      0.00000000	      0.83488639	      0.85834708	     -0.10269570	      0.82661610	      0.86849000	     -0.33756835	      0.79683269	      0.87467830	     -0.21202974	      0.64536219	      0.94738218	     -0.17698834	      0.64000517	      0.94599214	     -0.23141499	      0.71620355	      0.81877815	     -0.13451654	      0.71181440	      0.82312690	     -0.28784876	      0.71400898	      0.82095252	     -0.21118265	      0.73938771	      0.42302634	     -0.10604596	      0.73031483	      0.43153215	     -0.22245236	      0.89231862	      0.56403313	     -0.18148215	      0.83043155	      0.61282875	     -0.12049386	      0.81628636	      0.52602090	     -0.12397032	      0.67079085	      0.05423410	     -0.14366492	      0.69940750	      0.06065112	     -0.21312126	      0.66928384	      0.12794142	     -0.07163851	      0.67432471	      0.13941139	     -0.11412869	      0.70951290	      0.44208171	     -0.16368456	      0.68671065	      0.07075325	     -0.19112205	      0.78457961	      0.02221557	     -0.13328585	      0.86310834	      0.46224783	     -0.38350318	      0.83738254	      0.45375006	     -0.26260057	      0.87217835	      0.60765029	     -0.44741378	      0.79061999	      0.63272606	     -0.39861423	      0.81940684	      0.54961471	     -0.39186146	      0.66640503	      0.12126974	     -0.44736182	      0.67643640	      0.11169449	     -0.37806228	      0.80477729	      0.17823380	     -0.36731002	      0.76805281	      0.19569830	     -0.37873429	      0.82178019	      0.45826748	     -0.31957760	      0.67790004	      0.12229318	     -0.39425933	      0.76726167	      0.05390272	     -0.43213001	      0.81131594	      1.32858596	     -0.16396361	      0.80350806	      1.32451837	     -0.26949908	      0.67963964	      1.37261417	     -0.20457638	      0.80435987	      1.32289904	     -0.21582788	      0.85231847	      1.25890795	     -0.22075434	      0.72222300	      0.83189700	     -0.21776400	      0.70934500	      0.80580600	     -0.14932100	      0.70214000	      0.81334500	     -0.30109100	      0.70835800	      0.44159000	     -0.18014200	      0.81815700	      0.43703500	     -0.35329900	      0.68659700	      0.06436700	     -0.21110500	      0.67154100	      0.11590200	     -0.34488200	      0.79672700	      0.88280800	     -0.22284000	      0.79845300	      0.87682500	     -0.10405300	      0.79500000	      0.88879000	     -0.34162700	      0.59990700	      0.94497900	     -0.18732300	      0.59668500	      0.93977800	     -0.24158800	      0.71226000	      0.43670000	     -0.12248100	      0.82950400	      0.44826900	     -0.40905800	      0.70703700	      0.44502600	     -0.22698600	      0.84851600	      0.44423100	     -0.29213800	      0.66980300	      0.06236000	     -0.17485700	      0.65439900	      0.12279900	     -0.38035800	      0.69816700	      0.07624700	     -0.24302300	      0.68652700	      0.12222400	     -0.32215700	      0.68500600	      1.38675200	     -0.20493600	      0.80726100	      1.31613500	     -0.16341300	      0.80112300	      1.31309200	     -0.26906700	      0.80030100	      1.31160700	     -0.21565600	      0.83498800	      1.23942900	     -0.21916100	      0.86974900	      0.57471600	     -0.18456900	      0.83986100	      0.59602600	     -0.48056400	      0.80792900	      0.62456700	     -0.12302600	      0.76618000	      0.61651800	     -0.41951400	      0.79333500	      0.53825500	     -0.12734200	      0.80212200	      0.53621300	     -0.41718300	      0.66076200	      0.13530700	     -0.09807100	      0.80857800	      0.19199900	     -0.35358100	      0.66495000	      0.14752400	     -0.13968500	      0.76919800	      0.20785700	     -0.35546400	      0.78254400	      0.03882200	     -0.17788200	      0.75514100	      0.06422300	     -0.38313300	      1.06410216	    601.80070469	    -14.42732813	      0.71782025	      0.00000000	     -0.18937086	      0.00000000	      0.00000000	      0.00000000	      0.39399030	      0.00000000	     -0.36236130	      0.00000000	      0.11918250	      0.00000000	      0.00000000	      0.00000000	      0.00000000	      0.72222304	      0.83189678	     -0.21776438	      0.70934498	      0.80580574	     -0.14932133	      0.70214003	      0.81334496	     -0.30109107	      0.70835811	      0.44158986	     -0.18014249	      0.81815696	      0.43703514	     -0.35329875	      0.68659729	      0.06436650	     -0.21110493	      0.67154080	      0.11590207	     -0.34488177	      0.79672664	      0.88280785	     -0.22284022	      0.79845285	      0.87682545	     -0.10405318	      0.79500043	      0.88879031	     -0.34162727	      0.59990698	      0.94497889	     -0.18732330	      0.59668493	      0.93977773	     -0.24158759	      0.71226048	      0.43669981	     -0.12248091	      0.82950383	      0.44826916	     -0.40905759	      0.70703721	      0.44502580	     -0.22698639	      0.84851635	      0.44423136	     -0.29213792	      0.66980290	      0.06236008	     -0.17485683	      0.65439862	      0.12279864	     -0.38035828	      0.69816738	      0.07624738	     -0.24302275	      0.68652743	      0.12222404	     -0.32215720	      0.68500626	      1.38675213	     -0.20493585	      0.80726123	      1.31613469	     -0.16341329	      0.80112302	      1.31309175	     -0.26906660	      0.80030149	      1.31160700	     -0.21565570	      0.83498752	      1.23942935	     -0.21916066	      0.86974859	      0.57471621	     -0.18456881	      0.83986086	      0.59602600	     -0.48056397	      0.80792868	      0.62456709	     -0.12302627	      0.76617968	      0.61651844	     -0.41951418	      0.79333538	      0.53825462	     -0.12734151	      0.80212152	      0.53621250	     -0.41718328	      0.66076177	      0.13530698	     -0.09807111	      0.80857772	      0.19199906	     -0.35358056	      0.66495019	      0.14752398	     -0.13968456	      0.76919770	      0.20785673	     -0.35546413	      0.78254414	      0.03882227	     -0.17788164	      0.75514120	      0.06422321	     -0.38313282
